<svg viewBox="0 0 100 100" preserveAspectRatio="xMidYMid meet" style="pointer-events: none; display: block; width: 100%; height: 100%;" xmlns="http://www.w3.org/2000/svg"><g >
			<path fill="-1" d="M 48.948712,84.748734 C 48.680925,84.691013 48.223938,84.526522 47.933184,84.383198 47.430983,84.135644 46.790325,83.507089 35.124365,71.816342 18.187648,54.843642 15.822327,52.449883 15.596975,52.054178 c -0.348929,-0.612698 -0.523937,-1.253307 -0.53127,-1.944681 -0.0081,-0.767858 0.106051,-1.276523 0.454037,-2.022445 0.249545,-0.534908 0.398802,-0.698479 3.119117,-3.418232 2.57004,-2.569509 2.905939,-2.879321 3.343916,-3.084215 1.335315,-0.624684 2.954408,-0.580706 4.191842,0.113858 0.219624,0.123274 3.142112,3.004126 8.257459,8.139819 l 7.917526,7.949016 0.0048,-19.512851 c 0.0053,-21.511871 -0.02923,-19.979351 0.471897,-20.929082 0.36189,-0.685843 1.243534,-1.535761 1.932242,-1.862712 0.306479,-0.145494 0.735858,-0.301511 0.954175,-0.346704 0.258484,-0.05351 1.761861,-0.08217 4.310048,-0.08217 4.306552,0 4.374776,0.0061 5.235273,0.464696 0.604655,0.322277 1.380203,1.165547 1.738097,1.889869 0.517808,1.047963 0.486264,-0.309639 0.489153,21.052205 l 0.0026,19.324428 7.958697,-7.944241 c 8.560065,-8.544517 8.195204,-8.209691 9.306993,-8.540838 0.302057,-0.08997 0.707339,-0.135011 1.235939,-0.137364 0.912895,-0.0041 1.586147,0.169456 2.224889,0.573431 0.624691,0.395088 5.647263,5.144511 6.001733,5.675332 1.079479,1.616534 0.983736,3.731767 -0.240018,5.302629 -0.183915,0.236082 -7.289216,7.376154 -15.789557,15.866828 -15.351103,15.333642 -15.459331,15.439711 -16.073523,15.752849 -1.002598,0.51116 -2.069511,0.651128 -3.164366,0.415131 z"></path>
			<rect y="0" fill="none" width="100" height="100"></rect>
		</g></svg>
    
  