<svg viewBox="0 0 100 100" preserveAspectRatio="xMidYMid meet" style="pointer-events: none; display: block; width: 100%; height: 100%;" xmlns="http://www.w3.org/2000/svg"><g >
			<path fill="-1" d="M49.9,100c-6.9,0-13.4-1.3-19.5-3.9c-6.1-2.6-11.4-6.2-15.9-10.7C10,80.9,6.5,75.6,3.9,69.5
			C1.3,63.4,0,56.9,0,50c0-6.9,1.3-13.4,3.9-19.5c2.6-6.1,6.2-11.4,10.7-15.9c4.5-4.5,9.8-8.1,15.9-10.7C36.5,1.3,43,0,49.9,0
			s13.4,1.3,19.5,3.9c6.1,2.6,11.4,6.2,15.9,10.7c4.5,4.5,8.1,9.8,10.7,15.9c2.6,6.1,3.9,12.6,3.9,19.5c0,6.9-1.3,13.4-3.9,19.5
			c-2.6,6.1-6.2,11.4-10.7,15.9c-4.5,4.5-9.8,8.1-15.9,10.7C63.4,98.7,56.9,100,49.9,100 M16.3,46.9c-0.8,0.8-1.2,1.8-1.3,3
			c0,1.2,0.4,2.2,1.3,3.1l30.6,30.7c0.8,0.8,1.8,1.2,3.1,1.2c1.2,0,2.2-0.4,3.1-1.2l30.7-30.7c0.8-0.9,1.2-1.9,1.2-3.1
			c0-1.2-0.4-2.2-1.2-3.1L79,42.3c-0.8-0.8-1.8-1.2-3-1.2c-1.2,0-2.2,0.4-3.1,1.2L57.5,57.7V19.4c0-1.2-0.4-2.2-1.2-3.1
			c-0.8-0.9-1.8-1.3-3-1.3h-6.6c-1.2,0-2.3,0.4-3.1,1.3c-0.9,0.8-1.3,1.9-1.3,3.1v38.3L27,42.3c-0.8-0.8-1.8-1.2-3-1.2
			c-1.2,0-2.3,0.4-3.1,1.2L16.3,46.9z"></path>
			<rect y="0" fill="none" width="100" height="100"></rect>
		</g></svg>
    
  