<svg viewBox="0 0 100 100" preserveAspectRatio="xMidYMid meet" style="pointer-events: none; display: block; width: 100%; height: 100%;" xmlns="http://www.w3.org/2000/svg"><g transform="matrix(0.99775774,0,0,0.99775774,0.00302156,0.06524639)">
			<path fill="-1" d="M 48.592537,99.934473 C 48.208682,99.851733 47.553622,99.615946 47.136845,99.410501 46.416973,99.055649 45.498632,98.154657 28.776257,81.396751 4.498602,57.067518 1.108072,53.636223 0.78504497,53.069007 0.28487851,52.190744 0.03401622,51.272475 0.02350485,50.281436 0.01189408,49.180762 0.17552189,48.451625 0.67433662,47.382396 1.0320427,46.615641 1.2459927,46.381173 5.1453829,42.482588 8.8293638,38.799369 9.3108527,38.355274 9.9386636,38.061571 11.852749,37.166129 14.173611,37.229169 15.94739,38.22478 c 0.314816,0.176705 4.504008,4.306214 11.836517,11.667887 l 11.349246,11.394385 0.0068,-27.970371 c 0.0076,-30.8358328 -0.0419,-28.6390676 0.676433,-30.0004438 0.518745,-0.9831102 1.782523,-2.2014109 2.769741,-2.67007336 0.439317,-0.20855595 1.054804,-0.43219592 1.367746,-0.49697707 0.37052,-0.07670302 2.52551,-0.11778522 6.178166,-0.11778522 6.173156,0 6.27095,0.0087439 7.504415,0.66611074 0.866732,0.46196261 1.978429,1.67073391 2.491446,2.70900121 0.742243,1.5021851 0.697027,-0.4438469 0.701169,30.1769325 l 0.0038,27.700278 11.408261,-11.38754 C 84.511429,37.648189 83.988425,38.12814 85.5821,37.653463 c 0.432979,-0.128966 1.013923,-0.193529 1.771636,-0.196902 1.308575,-0.0059 2.273636,0.242903 3.18923,0.821975 0.895453,0.566333 8.094976,7.374314 8.603084,8.13521 1.54736,2.317193 1.41012,5.349239 -0.344049,7.600965 -0.26363,0.338408 -10.448606,10.573225 -22.633277,22.74404 C 54.16394,98.738505 54.008804,98.890547 53.1284,99.33941 c -1.437157,0.73271 -2.966506,0.93335 -4.535907,0.595063 z" ></path>
			<rect y="0" fill="none" width="100" height="100"></rect>
		</g></svg>