<svg viewBox="0 0 100 100" preserveAspectRatio="xMidYMid meet" style="pointer-events: none; display: block; width: 100%; height: 100%;" xmlns="http://www.w3.org/2000/svg"><g >
			<rect x="0" y="0" fill="none" width="100" height="100"></rect>
			<path fill="-1" d="M80.6,7.2v10.9c0,3-2.4,5.5-5.5,5.5h-1.5c-3,0-5.5-2.4-5.5-5.5V7.2H31.8v10.9c0,3-2.4,5.5-5.5,5.5h-1.5
				c-3,0-5.5-2.4-5.5-5.5V7.2H6.3V100h87.4V7.2H80.6z M88.2,94.5H11.8V29h76.4V94.5z"></path>
			<path fill="-1" d="M20.1,73.7l12.3-10.1c4.6-3.8,6.4-5.8,6.4-8.9c0-3.1-2.1-4.8-5-4.8c-2.8,0-4.8,1.6-7.5,5l-5.7-4.6
				c3.6-5,7.2-7.7,13.8-7.7c7.6,0,12.7,4.5,12.7,11.4v0.1c0,6.2-3.2,9.2-9.7,14.3l-6,4.6h16.1v7H20.1V73.7z"></path>
			<path fill="-1" d="M52.4,74.4l5.6-5.3c2.5,2.8,5.2,4.4,8.9,4.4c3.1,0,5.2-1.7,5.2-4.5v-0.1c0-3-2.7-4.7-7.2-4.7h-3.4l-1.3-5.2
				l8.8-8.9H54.6v-7h25v6.1l-9.3,8.9c5,0.8,9.9,3.5,9.9,10.3v0.1c0,7-5.1,12.1-13.3,12.1C60.2,80.8,55.6,78.2,52.4,74.4"></path>
			<path fill="-1" d="M29,17.3c0,1.9-1.6,3.5-3.5,3.5S22,19.3,22,17.3V3.5C22,1.6,23.6,0,25.5,0S29,1.6,29,3.5V17.3z"></path>
			<path fill="-1" d="M77.8,17.3c0,1.9-1.6,3.5-3.5,3.5s-3.5-1.6-3.5-3.5V3.5c0-1.9,1.6-3.5,3.5-3.5s3.5,1.6,3.5,3.5V17.3z"></path>
		</g></svg>
    
  