<svg viewBox="0 0 100 100" preserveAspectRatio="xMidYMid meet" style="pointer-events: none; display: block; width: 100%; height: 100%;" xmlns="http://www.w3.org/2000/svg"><g >
			<path fill="-16777216" d="M63,49.3V5c0-2.8-2.2-5-5-5H41c-2.8,0-4,2.2-4,5v44.3C28.7,53.9,23,62.8,23,73c0,14.9,12.1,27,27,27
			c14.9,0,27-12.1,27-27C77,62.8,71.3,53.9,63,49.3z M50,90c-9.4,0-17-7.6-17-17c0-7.8,5.2-14.3,12.3-16.3V20h10v36.9
			C62.1,59.1,67,65.5,67,73C67,82.4,59.4,90,50,90z"></path>
			<rect y="0" fill="none" width="100" height="100"></rect>
		</g></svg>
    
  