<svg viewBox="0 0 100 100" preserveAspectRatio="xMidYMid meet" style="pointer-events: none; display: block; width: 100%; height: 100%;" xmlns="http://www.w3.org/2000/svg"><g >
		<path fill="-1" d="M7.1,27h85.7c3.9,0,7.1-3.4,7.1-7.7c0-4.2-3.2-7.7-7.1-7.7H7.1c-3.9,0-7.1,3.4-7.1,7.7
		C0,23.6,3.2,27,7.1,27z M92.9,42.3H7.1C3.2,42.3,0,45.8,0,50c0,4.2,3.2,7.7,7.1,7.7h85.7c3.9,0,7.1-3.4,7.1-7.7
		C100,45.8,96.8,42.3,92.9,42.3z M92.9,73H7.1C3.2,73,0,76.4,0,80.7c0,4.2,3.2,7.7,7.1,7.7h85.7c3.9,0,7.1-3.4,7.1-7.7
		C100,76.4,96.8,73,92.9,73z"></path>
		<rect fill="none" width="100" height="100"></rect>
	</g></svg>
    
  