<svg viewBox="0 0 100 100" preserveAspectRatio="xMidYMid meet" style="pointer-events: none; display: block; width: 100%; height: 100%;" xmlns="http://www.w3.org/2000/svg"><g >
			<path fill="-1" d="M22.3,46.1c-3.1-3.1-3.1-8.2,0-11.3c3.1-3.1,8.2-3.1,11.3,0l9,9V8.5c0-4.4,3.6-8,8-8c4.4,0,8,3.6,8,8
				v35.2l9-9c3.1-3.1,8.2-3.1,11.3,0c3.1,3.1,3.1,8.2,0,11.3L56.2,68.7c-3.1,3.1-8.2,3.1-11.3,0L22.3,46.1z M83.5,60.9
				c-2.6-2.5-6.7-2.5-9.3,0L50.5,84.7L26.8,61c-2.6-2.6-6.7-2.6-9.3,0c-2.6,2.6-2.6,6.7,0,9.3l28.3,28.3c1.3,1.3,3,1.9,4.6,1.9
				c1.7,0,3.4-0.6,4.6-1.9l28.4-28.4C86,67.7,86,63.5,83.5,60.9z"></path>
			<rect y="0" fill="none" width="100" height="100"></rect>
		</g></svg>
    
  