<svg viewBox="0 0 100 100" preserveAspectRatio="xMidYMid meet" style="pointer-events: none; display: block; width: 100%; height: 100%;" xmlns="http://www.w3.org/2000/svg"><g >
			<path fill="-1" d="m 55.146046,75.669301 c 0.210401,-0.2104 0.420801,-0.490934 0.561068,-0.701335 L 82.989058,47.615888 c 0.140267,-0.140267 0.210401,-0.280534 0.280534,-0.350668 0.210401,-0.210399 0.420802,-0.4208 0.561069,-0.701335 0.140267,-0.2104 0.280534,-0.490935 0.350667,-0.701335 0.07013,-0.2104 0.210401,-0.350667 0.280534,-0.561068 0.07013,-0.280535 0.210401,-0.561068 0.280535,-0.841602 0.07013,-0.210401 0.140267,-0.350668 0.140267,-0.490935 0.210401,-0.911736 0.210401,-1.893606 0,-2.805341 -0.07013,-0.210401 -0.140267,-0.420802 -0.210401,-0.561069 -0.07013,-0.210401 -0.140267,-0.490934 -0.210401,-0.771469 -0.07013,-0.2104 -0.2104,-0.420801 -0.350667,-0.631202 -0.07013,-0.2104 -0.2104,-0.4208 -0.280534,-0.561068 l -0.841603,-1.052003 -0.07013,-0.07013 0,0 C 82.56826,37.165995 82.217592,36.88546 81.866924,36.67506 81.726658,36.534793 81.516257,36.46466 81.37599,36.394526 81.165589,36.254259 80.955189,36.113992 80.674655,36.043858 80.464254,35.973728 80.253854,35.903591 79.973319,35.833457 l -0.631201,-0.210399 c -0.420802,-0.07013 -0.77147,-0.140268 -1.19227,-0.140268 l -0.210401,0 -55.124956,0 -0.350668,0 c -1.963739,-0.140267 -3.927478,0.561068 -5.400282,2.033873 -2.805341,2.80534 -2.805341,7.293886 0,10.099228 l 27.281943,27.352076 c 0.210401,0.210401 0.350668,0.490935 0.561069,0.701335 1.40267,1.402671 3.226142,2.104007 5.119747,2.104007 1.823472,-0.07013 3.717077,-0.701336 5.119748,-2.104007 z" ></path>
		</g></svg>