<svg viewBox="0 0 100 100" preserveAspectRatio="xMidYMid meet" style="pointer-events: none; display: block; width: 100%; height: 100%;" xmlns="http://www.w3.org/2000/svg"><g >
			<path fill="-1" d="M99.1,84.7l-0.6-0.6v0L74.4,60c3.3-5.8,5.3-12.5,5.3-19.6C79.9,18.5,62.3,0.7,40.4,0.5c-0.1,0-0.2,0-0.3,0
			C18.4,0.5,0.6,18.1,0.5,39.9C0.4,61.8,18,79.7,39.9,79.8c0.1,0,0.2,0,0.3,0c7.3,0,14.1-2,20-5.4l24.1,24.1l0.6,0.6
			c1.8,1.8,4.8,1.8,6.6,0l7.7-7.8C101,89.5,101,86.6,99.1,84.7z M60.9,61.1c-5.6,5.5-13,8.6-20.8,8.6h-0.2
			C23.7,69.6,10.5,56.3,10.6,40C10.7,23.8,24,10.7,40.1,10.7h0.2c7.9,0,15.3,3.2,20.8,8.8c5.5,5.6,8.6,13,8.5,20.9
			C69.6,48.2,66.5,55.6,60.9,61.1z"></path>
			<rect y="0" fill="none" width="100" height="100"></rect>
		</g></svg>
    
  