<svg viewBox="0 0 100 100" preserveAspectRatio="xMidYMid meet" style="pointer-events: none; display: block; width: 100%; height: 100%;" xmlns="http://www.w3.org/2000/svg"><g >
			<rect x="0" y="0" fill="none" width="100" height="100"></rect>
			<path fill="-1" d="m 78.372803,73.386536 -9.197998,0 0,3.719482 8.526611,0 0,3.867188 -8.526611,0 0,8.540039 -5.129395,0 0,-19.993897 14.327393,0 0,3.867188 z m -17.885742,0 -9.197999,0 0,3.719482 8.526612,0 0,3.867188 -8.526612,0 0,8.540039 -5.129394,0 0,-19.993897 14.327393,0 0,3.867188 z M 42.23877,79.52301 q 0,4.780274 -2.739258,7.600098 -2.739258,2.806396 -7.573242,2.806396 -4.820557,0 -7.559815,-2.806396 -2.739258,-2.819824 -2.739258,-7.600098 0,-4.820556 2.739258,-7.613525 2.739258,-2.806397 7.559815,-2.806397 4.807128,0 7.559814,2.806397 2.752686,2.792969 2.752686,7.613525 z m -6.834717,5.062256 q 0.751953,-0.913086 1.114502,-2.148437 0.362549,-1.24878 0.362549,-2.927246 0,-1.799317 -0.41626,-3.061524 -0.41626,-1.262207 -1.087647,-2.041016 -0.684814,-0.805664 -1.584472,-1.168212 -0.886231,-0.362549 -1.853028,-0.362549 -0.980224,0 -1.853027,0.349121 -0.859375,0.349121 -1.584473,1.154785 -0.671386,0.751953 -1.101074,2.081299 -0.41626,1.315918 -0.41626,3.061523 0,1.785889 0.402832,3.048096 0.41626,1.248779 1.087647,2.041016 0.671387,0.792236 1.571045,1.168212 0.899658,0.375977 1.89331,0.375977 0.993653,0 1.893311,-0.375977 0.899658,-0.389404 1.571045,-1.195068 z M 50,56.9 c -6.9,0 -12.5,-5.6 -12.5,-12.5 0,-4.4 2.3,-8.3 5.7,-10.5 0,0 -1.2,-7.4 -2.6,-16.1 0,-2.6 2.1,-4.7 4.7,-4.7 l 9.4,0 c 2.6,0 4.7,2.1 4.7,4.7 l -2.6,16.1 c 3.4,2.2 5.7,6.1 5.7,10.5 0,6.9 -5.6,12.5 -12.5,12.5 z M 91.7,0 8.3,0 C 3.7,0 0,3.7 0,8.3 l 0,83.3 c 0,4.6 3.7,8.3 8.3,8.3 l 83.3,0 c 4.6,0 8.3,-3.7 8.3,-8.3 l 0,-83.3 C 100,3.7 96.3,0 91.7,0 Z M 55,36.5 a 5,2.5 0 0 1 -5,2.5 5,2.5 0 0 1 -5,-2.5 5,2.5 0 0 1 5,-2.5 5,2.5 0 0 1 5,2.5 z" ></path>
		</g></svg>