<svg viewBox="0 0 100 100" preserveAspectRatio="xMidYMid meet" style="pointer-events: none; display: block; width: 100%; height: 100%;" xmlns="http://www.w3.org/2000/svg"><g >
			<rect x="0" y="0" fill="none" width="100" height="100"></rect>
			<path fill="-1" d="M16.3,50l22.1-22.1l-8.1-8.1L0,50l30.3,30.3l8.1-8.1l0,0L16.3,50z M74,24l-4.2-4.2l-8.1,8.1l4.2,4.2L83.7,50
			L61.6,72.1l8.1,8.1L100,50L74,24z M28,50.4c0,2.8,2.3,5.2,5.2,5.2c2.9,0,5.2-2.3,5.2-5.2c0-2.8-2.3-5.2-5.2-5.2
			C30.3,45.3,28,47.6,28,50.4z M49.8,45.3c-2.8,0-5.2,2.3-5.2,5.2c0,2.8,2.3,5.2,5.2,5.2c2.8,0,5.2-2.3,5.2-5.2
			C54.9,47.6,52.6,45.3,49.8,45.3z M66.4,55.6c2.8,0,5.2-2.3,5.2-5.2c0-2.8-2.3-5.2-5.2-5.2c-2.9,0-5.2,2.3-5.2,5.2
			C61.2,53.3,63.5,55.6,66.4,55.6z"></path>
		</g></svg>
    
  