<svg viewBox="0 0 100 100" preserveAspectRatio="xMidYMid meet" style="pointer-events: none; display: block; width: 100%; height: 100%;" xmlns="http://www.w3.org/2000/svg"><g >
			<rect x="0" y="0" fill="none" width="100" height="100"></rect>
			<path fill="-1" d="M90.6,22.8c-5.2,0-9.4,4.2-9.4,9.3c0,1.5,0.4,2.9,1,4.2L59.9,59c-0.9-0.3-1.9-0.5-2.9-0.5
			c-1,0-2,0.2-2.9,0.5l-12-12.4c0.6-1.3,1-2.7,1-4.2c0-5.1-4.2-9.3-9.4-9.3c-5.2,0-9.4,4.2-9.4,9.3c0,1.5,0.4,2.9,1,4.2L13.2,59.4
			c-1.2-0.5-2.5-0.8-3.8-0.8c-5.2,0-9.4,4.2-9.4,9.3c0,5.1,4.2,9.3,9.4,9.3c5.2,0,9.4-4.2,9.4-9.3c0-1.5-0.4-2.9-1-4.2l12.3-12.8
			c1.2,0.5,2.5,0.8,3.8,0.8c1.4,0,2.7-0.3,3.8-0.8l11.4,11.9c-0.9,1.5-1.5,3.2-1.5,5c0,5.2,4.2,9.3,9.4,9.3c5.2,0,9.4-4.2,9.4-9.3
			c0-1.9-0.6-3.6-1.5-5l21.8-22.1c1.2,0.5,2.5,0.8,3.8,0.8c5.2,0,9.4-4.2,9.4-9.3C100,27,95.8,22.8,90.6,22.8z"></path>
		</g></svg>
    
  