<svg viewBox="0 0 100 100" preserveAspectRatio="xMidYMid meet" style="pointer-events: none; display: block; width: 100%; height: 100%;" xmlns="http://www.w3.org/2000/svg"><g>
			<path fill="-1" d="M 34.900391 17.599609 C 31.300391 17.599609 28.500391 18.9 28.400391 19 L 28.099609 19.199219 L 26.800781 21.300781 L 27.800781 22 C 28.300781 22.3 33.099219 25.400781 33.699219 25.800781 C 33.799219 25.900781 34.399609 26.500391 34.599609 27.400391 C 34.899609 28.400391 34.499609 29.7 33.599609 31 C 32.699609 32.5 31.699609 33.199219 30.599609 33.199219 C 29.999609 33.199219 29.399219 32.899219 29.199219 32.699219 L 29 32.599609 C 28.6 32.299609 25.299219 30.200391 23.199219 28.900391 L 22.099609 28.199219 L 20.800781 30.300781 L 20.800781 30.599609 C 20.800781 30.899609 20.500781 38.4 26.800781 42.5 C 28.500781 43.6 30.400391 44.199219 32.400391 44.199219 C 33.500391 44.199219 34.599609 43.999219 35.599609 43.699219 C 35.899609 43.499219 36.2 43.5 36.5 43.5 C 37.5 43.5 38.600781 44.200391 40.300781 45.900391 L 69.699219 76 C 71.099219 77.4 72.900391 78.199219 74.900391 78.199219 C 76.800391 78.199219 78.699609 77.499609 80.099609 76.099609 C 82.999609 73.199609 82.999609 68.700391 80.099609 65.900391 L 48.900391 36.900391 C 46.900391 34.800391 46.799219 34.299609 47.199219 32.099609 C 48.199219 27.499609 47.3 23.900391 44 20.900391 L 42.300781 19.300781 C 40.300781 18.200781 37.300391 17.599609 34.900391 17.599609 z M 74.400391 68.5 C 75.100391 68.5 75.7 68.700781 76 69.300781 C 76.5 69.800781 76.699219 70.499219 76.699219 71.199219 C 76.699219 71.799219 76.5 72.400391 76 72.900391 C 75.1 73.800391 73.5 73.599219 72.5 72.699219 C 71.7 71.799219 71.7 70.100781 72.5 69.300781 C 73.1 68.800781 73.700391 68.5 74.400391 68.5 z " ></path>
		</g></svg>