<svg viewBox="0 0 100 100" preserveAspectRatio="xMidYMid meet" style="pointer-events: none; display: block; width: 100%; height: 100%;" xmlns="http://www.w3.org/2000/svg"><g >
			<path fill="-1" d="M74.4,68.5c-0.7,0-1.3,0.3-1.9,0.8c-0.8,0.8-0.8,2.5,0,3.4c1,0.9,2.6,1.1,3.5,0.2c0.5-0.5,0.7-1.1,0.7-1.7
			c0-0.7-0.2-1.4-0.7-1.9C75.7,68.7,75.1,68.5,74.4,68.5z"></path>
			<path fill="-1" d="M50,0C22.4,0,0,22.4,0,50c0,27.6,22.4,50,50,50c27.6,0,50-22.4,50-50C100,22.4,77.6,0,50,0z M80.1,76.1
			c-1.4,1.4-3.3,2.1-5.2,2.1c-2,0-3.8-0.8-5.2-2.2L40.3,45.9c-1.7-1.7-2.8-2.4-3.8-2.4c-0.3,0-0.6,0-0.9,0.2c-1,0.3-2.1,0.5-3.2,0.5
			c-2,0-3.9-0.6-5.6-1.7c-6.3-4.1-6-11.6-6-11.9l0-0.3l1.3-2.1l1.1,0.7c2.1,1.3,5.4,3.4,5.8,3.7l0.2,0.1c0.2,0.2,0.8,0.5,1.4,0.5
			c1.1,0,2.1-0.7,3-2.2c0.9-1.3,1.3-2.6,1-3.6c-0.2-0.9-0.8-1.5-0.9-1.6c-0.6-0.4-5.4-3.5-5.9-3.8l-1-0.7l1.3-2.1l0.3-0.2
			c0.1-0.1,2.9-1.4,6.5-1.4c2.4,0,5.4,0.6,7.4,1.7l1.7,1.6c3.3,3,4.2,6.6,3.2,11.2c-0.4,2.2-0.3,2.7,1.7,4.8l31.2,29
			C83,68.7,83,73.2,80.1,76.1z"></path>
		</g></svg>
    
  