<svg viewBox="0 0 100 100" preserveAspectRatio="xMidYMid meet" style="pointer-events: none; display: block; width: 100%; height: 100%;" xmlns="http://www.w3.org/2000/svg"><g transform="translate(0.6,0.6)">
			<path fill="-1" d="m 98.8,80.7 -0.5,-0.5 0,0 -21.8,-21.8 c 3,-5.2 4.7,-11.2 4.7,-17.7 C 81.2,21.1 65.4,5.3 45.9,5.3 26.7,5.3 11.1,20.7 10.6,39.8 L 0,39.8 15.9,57.5 31.8,39.8 19.4,39.8 C 19.9,25.5 31.5,14.1 45.9,14.1 60.5,14.1 72.4,26 72.4,40.7 72.4,55.4 60.5,67.3 45.9,67.3 40,67.3 34.6,65.4 30.2,62.1 l -6.1,6.5 c 6,4.7 13.5,7.5 21.7,7.5 6.5,0 12.6,-1.8 17.8,-4.8 l 21.8,21.7 0.5,0.5 c 1.6,1.6 4.3,1.6 5.9,0 l 6.9,-6.9 c 1.7,-1.7 1.7,-4.3 0.1,-5.9 z" />
      <rect y="0" fill="none" width="100" height="100"></rect>
		</g></svg>